<svg xmlns="http://www.w3.org/2000/svg" width="23.957" height="22.202" viewBox="0 0 23.957 22.202">
  <defs>
    <style>
      .cls-1 {
        fill: #5f65f4;
      }
    </style>
  </defs>
  <g id="download" transform="translate(0 -17.25)">
    <g id="Group_10" data-name="Group 10" transform="translate(0 17.25)">
      <path id="Path_5" data-name="Path 5" class="cls-1" d="M23.27,228.252a.683.683,0,0,0-.686.686v6.243a3.08,3.08,0,0,1-3.076,3.076H4.449a3.08,3.08,0,0,1-3.076-3.076v-6.345a.686.686,0,0,0-1.373,0v6.345a4.454,4.454,0,0,0,4.449,4.449H19.508a4.454,4.454,0,0,0,4.449-4.449v-6.243A.687.687,0,0,0,23.27,228.252Z" transform="translate(0 -217.428)"/>
      <path id="Path_6" data-name="Path 6" class="cls-1" d="M140.794,34a.691.691,0,0,0,.483.2.67.67,0,0,0,.483-.2l4.362-4.362a.687.687,0,0,0-.971-.971l-3.188,3.193V17.936a.686.686,0,0,0-1.373,0V31.862L137.4,28.669a.687.687,0,0,0-.971.971Z" transform="translate(-129.299 -17.25)"/>
    </g>
  </g>
</svg>
