<svg xmlns="http://www.w3.org/2000/svg" xmlns:xlink="http://www.w3.org/1999/xlink" viewBox="0 0 800 800"><defs><style>.cls-1{isolation:isolate;}.cls-2{opacity:0.71;mix-blend-mode:overlay;fill:url(#radial-gradient);}.cls-3{fill:#272a74;}.cls-4{fill:#5f65f4;}</style><radialGradient id="radial-gradient" cx="400" cy="400" r="400" gradientUnits="userSpaceOnUse"><stop offset="0" stop-color="#5f65f4" stop-opacity="0.61"/><stop offset="1" stop-color="#5f65f4" stop-opacity="0"/></radialGradient></defs><title>nota_logo_glow@svg</title><g class="cls-1"><g id="Layer_2" data-name="Layer 2"><g id="Layer_3" data-name="Layer 3"><circle class="cls-2" cx="400" cy="400" r="400"/></g><g id="Layer_2-2" data-name="Layer 2"><path class="cls-3" d="M636.77,400c0,115.92-83.31,212.38-193.32,232.78a237.41,237.41,0,0,1-43.45,4c-130.76,0-236.77-106-236.77-236.77S269.24,163.23,400,163.23a237.76,237.76,0,0,1,52.5,5.84C558,193,636.77,287.28,636.77,400Z"/><path class="cls-4" d="M481.11,461c6.65,6.63,9.44,17.12,4.81,27.81A22.77,22.77,0,0,1,465,502.38h-4.46a24.24,24.24,0,0,0-24.21,25.27,22.26,22.26,0,0,1-22.24,23.19H382.67a24.23,24.23,0,0,0-24.23,24.64c.23,13.31,11.47,23.81,24.78,23.81h37.85a24.23,24.23,0,0,1,22.38,33.49,238.25,238.25,0,0,1-48.82,3.93C265.34,633.84,161.8,526.62,163.25,397.3,164.69,267.79,270.14,163.23,400,163.23a237.76,237.76,0,0,1,52.5,5.84c.47.4.92.82,1.36,1.26a24.16,24.16,0,0,1,7.1,17.59c-.25,13.29-11.48,23.76-24.76,23.76h-.75a24.23,24.23,0,0,0-24.22,24.69c.25,13.29,11.48,23.76,24.77,23.76h27.43c13.59,0,25,11.12,24.78,24.7A24.24,24.24,0,0,1,464,308.58H387.86a24.25,24.25,0,0,0-24.23,24.69c.25,13.29,11.48,23.76,24.76,23.76h48.34A24.25,24.25,0,0,1,461,381.72c-.25,13.29-11.48,23.76-24.76,23.76H382.67a24.25,24.25,0,0,0-24.23,24.69c.25,13.29,11.48,23.76,24.76,23.76H464A24.12,24.12,0,0,1,481.11,461Z"/></g></g></g></svg>