<svg xmlns="http://www.w3.org/2000/svg" viewBox="0 0 473.54 473.54"><defs><style>.cls-1{fill:#272a74;}.cls-2{fill:#5f65f4;}</style></defs><title>nota_logo@svg</title><g id="Layer_2" data-name="Layer 2"><g id="Layer_2-2" data-name="Layer 2"><path class="cls-1" d="M473.54,236.77c0,115.92-83.31,212.38-193.32,232.78a237.41,237.41,0,0,1-43.45,4C106,473.54,0,367.53,0,236.77S106,0,236.77,0a237.76,237.76,0,0,1,52.5,5.84C394.77,29.73,473.54,124.05,473.54,236.77Z"/><path class="cls-2" d="M317.88,297.8c6.65,6.63,9.44,17.12,4.81,27.81a22.77,22.77,0,0,1-20.93,13.54H297.3a24.24,24.24,0,0,0-24.21,25.27,22.26,22.26,0,0,1-22.24,23.19H219.44a24.23,24.23,0,0,0-24.23,24.64c.23,13.31,11.47,23.81,24.78,23.81h37.85a24.23,24.23,0,0,1,22.38,33.49,238.25,238.25,0,0,1-48.82,3.93C102.11,470.61-1.43,363.39,0,234.07,1.46,104.56,106.91,0,236.77,0a237.76,237.76,0,0,1,52.5,5.84c.47.4.92.82,1.36,1.26a24.16,24.16,0,0,1,7.1,17.59C297.48,38,286.25,48.45,273,48.45h-.75A24.23,24.23,0,0,0,248,73.14c.25,13.29,11.48,23.76,24.77,23.76H300.2c13.59,0,25,11.12,24.78,24.7a24.24,24.24,0,0,1-24.23,23.75H224.63A24.25,24.25,0,0,0,200.4,170c.25,13.29,11.48,23.76,24.76,23.76H273.5a24.25,24.25,0,0,1,24.23,24.69c-.25,13.29-11.48,23.76-24.76,23.76H219.44a24.25,24.25,0,0,0-24.23,24.69c.25,13.29,11.48,23.76,24.76,23.76h80.78A24.12,24.12,0,0,1,317.88,297.8Z"/></g></g></svg>