<svg id="Layer_1" data-name="Layer 1" xmlns="http://www.w3.org/2000/svg" viewBox="0 0 100 92.68"><defs><style>.cls-1{fill:#2e2e2e;}</style></defs><title>inbox</title><g id="download"><g id="Group_10" data-name="Group 10"><path id="Path_5" data-name="Path 5" class="cls-1" d="M97.13,49a2.85,2.85,0,0,0-2.86,2.83V77.89A12.85,12.85,0,0,1,81.43,90.73H18.57A12.85,12.85,0,0,1,5.73,77.89V51.4A2.87,2.87,0,0,0,0,51.4V77.89A18.59,18.59,0,0,0,18.57,96.46H81.43A18.59,18.59,0,0,0,100,77.89V51.83A2.87,2.87,0,0,0,97.13,49Z" transform="translate(0 -3.78)"/><path id="Path_6" data-name="Path 6" class="cls-1" d="M48,73.7a2.93,2.93,0,0,0,2,.84,2.81,2.81,0,0,0,2-.84L70.22,55.49a2.87,2.87,0,0,0-4-4.05L52.86,64.77V6.65a2.87,2.87,0,1,0-5.73,0V64.78L33.81,51.45a2.87,2.87,0,0,0-4.05,4Z" transform="translate(0 -3.78)"/></g></g></svg>