<svg id="Layer_1" data-name="Layer 1" xmlns="http://www.w3.org/2000/svg" viewBox="0 0 401.52 399.5"><defs><style>.cls-1{fill:#fff;}</style></defs><title>note-white</title><path class="cls-1" d="M370.59,252a10,10,0,0,0-10,10v88.79a30,30,0,0,1-30,30H50a30,30,0,0,1-30-30V90.17a30,30,0,0,1,30-30h88.79a10,10,0,0,0,0-20H50a50.06,50.06,0,0,0-50,50v260.6a50.06,50.06,0,0,0,50,50H330.59a50.06,50.06,0,0,0,50-50V262A10,10,0,0,0,370.59,252Z" transform="translate(0 -1.26)"/><path class="cls-1" d="M376.63,14.44a45,45,0,0,0-63.64,0L134.58,192.85a10,10,0,0,0-2.56,4.4L108.55,282a10,10,0,0,0,12.31,12.31l84.7-23.47a10,10,0,0,0,4.4-2.56L388.36,89.82a45,45,0,0,0,0-63.64ZM156.37,199.35l146-146,47.09,47.09-146,146ZM147,218.22l37.63,37.63-52,14.42ZM374.22,75.68l-10.6,10.6-47.1-47.09,10.61-10.61a25,25,0,0,1,35.35,0l11.74,11.74A25,25,0,0,1,374.22,75.68Z" transform="translate(0 -1.26)"/></svg>