<svg id="Layer_1" data-name="Layer 1" xmlns="http://www.w3.org/2000/svg" viewBox="0 0 100 95.8"><defs><style>.cls-1{fill:#2e2e2e;}</style></defs><title>star</title><path id="star" class="cls-1" d="M97.83,45.52a7.17,7.17,0,0,0-4-12.23L69.65,29.77A3.18,3.18,0,0,1,67.26,28L56.45,6.1a7.18,7.18,0,0,0-12.87,0L32.75,28a3.14,3.14,0,0,1-2.4,1.73L6.14,33.29a7.18,7.18,0,0,0-4,12.23L19.68,62.6a3.13,3.13,0,0,1,.91,2.8L16.48,89.51A7.17,7.17,0,0,0,26.9,97.07L48.53,85.69a3.14,3.14,0,0,1,2.95,0L73.12,97.07a7.16,7.16,0,0,0,10.41-7.56L79.4,65.4a3.16,3.16,0,0,1,.91-2.8ZM75.46,66.08l4.13,24.11A3.16,3.16,0,0,1,77,93.85a3.13,3.13,0,0,1-2-.32L53.36,82.14a7.21,7.21,0,0,0-6.67,0L25.05,93.53a3.16,3.16,0,0,1-4.59-3.34l4.13-24.12a7.15,7.15,0,0,0-2.06-6.34L5,42.65a3.17,3.17,0,0,1,1.75-5.4l24.21-3.51a7.16,7.16,0,0,0,5.4-3.93L47.16,7.87A3.15,3.15,0,0,1,51.4,6.44a3.12,3.12,0,0,1,1.44,1.43L63.66,29.81a7.16,7.16,0,0,0,5.39,3.93l24.22,3.51a3.17,3.17,0,0,1,2.67,3.6,3.1,3.1,0,0,1-.92,1.8L77.5,59.73A7.16,7.16,0,0,0,75.46,66.08Z" transform="translate(0 -2.1)"/></svg>