<svg id="Layer_1" data-name="Layer 1" xmlns="http://www.w3.org/2000/svg" viewBox="0 0 81.44 87.66"><defs><style>.cls-1{fill:#2e2e2e;}</style></defs><title>trash</title><g id="garbage"><path id="Path_9" data-name="Path 9" class="cls-1" d="M50,82.6a1.6,1.6,0,0,0,1.69-1.48v-49a1.71,1.71,0,0,0-3.39,0v49A1.6,1.6,0,0,0,50,82.6Z" transform="translate(-9.27 -6.83)"/><path id="Path_10" data-name="Path 10" class="cls-1" d="M33,82.6a1.6,1.6,0,0,0,1.7-1.48v-49a1.71,1.71,0,0,0-3.4,0v49A1.6,1.6,0,0,0,33,82.6Z" transform="translate(-9.27 -6.83)"/><path id="Path_11" data-name="Path 11" class="cls-1" d="M67,82.6a1.6,1.6,0,0,0,1.7-1.48h0v-49a1.71,1.71,0,0,0-3.4,0v49A1.6,1.6,0,0,0,67,82.6Z" transform="translate(-9.27 -6.83)"/><path id="Path_12" data-name="Path 12" class="cls-1" d="M89,15.75H65.19a11,11,0,0,0-3.06-7,7.76,7.76,0,0,0-5.35-1.93h-17a7.76,7.76,0,0,0-5.34,1.93,11.05,11.05,0,0,0-3.07,7H11a1.61,1.61,0,0,0-1.7,1.49A1.6,1.6,0,0,0,11,18.73h3.47L17.68,87.1c-.11,4,3.48,7.29,8,7.39H74c4.54.06,8.27-3.12,8.33-7.1v-.27l3.25-68.4H89a1.6,1.6,0,0,0,1.7-1.48A1.61,1.61,0,0,0,89,15.75ZM36.9,10.82a4.13,4.13,0,0,1,2.9-1h17a4.13,4.13,0,0,1,2.9,1,8.09,8.09,0,0,1,2.11,4.93H34.82a8.07,8.07,0,0,1,2.1-4.93ZM78.91,87c.12,2.38-2,4.39-4.7,4.49H26c-2.75,0-5-2-4.94-4.4a.37.37,0,0,1,0-.11L17.83,18.72H82.16Z" transform="translate(-9.27 -6.83)"/></g></svg>